# xmcd
#
# Track frame offsets: 
#        150
#        14003
#        32327
#        54283
#        69254
#        86588
#        100389
#        126296
#        141389
#        161393
#        175311
#        181312
#        196510
#        208299
#        224651
#
# Disc length: 3411 seconds
#
# Revision: 0
# Processed by: cddbd v1.5.2PL0 Copyright (c) Steve Scherf et al.
# Submitted via: ExactAudioCopyFreeDBPlugin 1.0
#
DISCID=d50d510f
DTITLE=Blue Sky Black Death - The Holocaust Instrumentals
DYEAR=2008
DGENRE=Hip-Hop
TTITLE0=Plunder
TTITLE1=Twilight Zone
TTITLE2=We All Are Well Known
TTITLE3=What Can The Matter Be
TTITLE4=God Be With You
TTITLE5=Monarchs
TTITLE6=No Image
TTITLE7=The Ocean
TTITLE8=Sinister
TTITLE9=Smoking Room
TTITLE10=Lady Of The Birds
TTITLE11=The Worst
TTITLE12=Killer Moth
TTITLE13=Wing To Wingfeather
TTITLE14=Crash
EXTD=
EXTT0=
EXTT1=
EXTT2=
EXTT3=
EXTT4=
EXTT5=
EXTT6=
EXTT7=
EXTT8=
EXTT9=
EXTT10=
EXTT11=
EXTT12=
EXTT13=
EXTT14=
PLAYORDER=
